<mxfile host="app.diagrams.net" modified="2020-07-24T02:02:06.242Z" agent="5.0 (Windows NT 10.0; Win64; x64) AppleWebKit/537.36 (KHTML, like Gecko) Chrome/80.0.3987.149 Safari/537.36" etag="CcgzEWf8Q0sOiQtjX8Kp" version="13.5.1" type="github">
  <diagram name="Page-1" id="12e1b939-464a-85fe-373e-61e167be1490">
    <mxGraphModel dx="2355" dy="1608" grid="1" gridSize="10" guides="1" tooltips="1" connect="1" arrows="1" fold="1" page="1" pageScale="1.5" pageWidth="1169" pageHeight="826" background="#ffffff" math="0" shadow="0">
      <root>
        <mxCell id="0" />
        <mxCell id="1" parent="0" />
        <mxCell id="60da8b9f42644d3a-3" value="ATTRACT" style="text;html=1;strokeColor=none;fillColor=none;align=center;verticalAlign=middle;whiteSpace=wrap;rounded=0;shadow=0;fontSize=27;fontColor=#FFFFFF;fontStyle=1" parent="1" vertex="1">
          <mxGeometry x="316" y="425" width="280" height="60" as="geometry" />
        </mxCell>
        <mxCell id="60da8b9f42644d3a-4" value="Blog&lt;div&gt;Keywords&lt;/div&gt;&lt;div&gt;Social Media&lt;/div&gt;" style="text;html=1;strokeColor=none;fillColor=none;align=center;verticalAlign=middle;whiteSpace=wrap;rounded=0;shadow=0;fontSize=14;fontColor=#FFFFFF;" parent="1" vertex="1">
          <mxGeometry x="316" y="725" width="280" height="90" as="geometry" />
        </mxCell>
        <mxCell id="60da8b9f42644d3a-6" value="" style="line;strokeWidth=2;html=1;rounded=0;shadow=0;fontSize=27;align=center;fillColor=none;strokeColor=#FFFFFF;" parent="1" vertex="1">
          <mxGeometry x="336" y="485" width="240" height="10" as="geometry" />
        </mxCell>
        <mxCell id="60da8b9f42644d3a-7" value="" style="line;strokeWidth=2;html=1;rounded=0;shadow=0;fontSize=27;align=center;fillColor=none;strokeColor=#FFFFFF;" parent="1" vertex="1">
          <mxGeometry x="336" y="705" width="240" height="10" as="geometry" />
        </mxCell>
        <mxCell id="60da8b9f42644d3a-18" value="CONVERT" style="text;html=1;strokeColor=none;fillColor=none;align=center;verticalAlign=middle;whiteSpace=wrap;rounded=0;shadow=0;fontSize=27;fontColor=#FFFFFF;fontStyle=1" parent="1" vertex="1">
          <mxGeometry x="596" y="425" width="280" height="60" as="geometry" />
        </mxCell>
        <mxCell id="60da8b9f42644d3a-19" value="Forms&lt;div&gt;Calls-to-Action&lt;/div&gt;&lt;div&gt;Landing Pages&lt;/div&gt;" style="text;html=1;strokeColor=none;fillColor=none;align=center;verticalAlign=middle;whiteSpace=wrap;rounded=0;shadow=0;fontSize=14;fontColor=#FFFFFF;" parent="1" vertex="1">
          <mxGeometry x="596" y="725" width="280" height="90" as="geometry" />
        </mxCell>
        <mxCell id="60da8b9f42644d3a-20" value="" style="line;strokeWidth=2;html=1;rounded=0;shadow=0;fontSize=27;align=center;fillColor=none;strokeColor=#FFFFFF;" parent="1" vertex="1">
          <mxGeometry x="616" y="485" width="240" height="10" as="geometry" />
        </mxCell>
        <mxCell id="60da8b9f42644d3a-21" value="" style="line;strokeWidth=2;html=1;rounded=0;shadow=0;fontSize=27;align=center;fillColor=none;strokeColor=#FFFFFF;" parent="1" vertex="1">
          <mxGeometry x="616" y="705" width="240" height="10" as="geometry" />
        </mxCell>
        <mxCell id="60da8b9f42644d3a-25" value="CLOSE" style="text;html=1;strokeColor=none;fillColor=none;align=center;verticalAlign=middle;whiteSpace=wrap;rounded=0;shadow=0;fontSize=27;fontColor=#FFFFFF;fontStyle=1" parent="1" vertex="1">
          <mxGeometry x="876" y="478" width="280" height="60" as="geometry" />
        </mxCell>
        <mxCell id="60da8b9f42644d3a-26" value="Email&lt;div&gt;Signals&lt;/div&gt;&lt;div&gt;Workflows&lt;/div&gt;" style="text;html=1;strokeColor=none;fillColor=none;align=center;verticalAlign=middle;whiteSpace=wrap;rounded=0;shadow=0;fontSize=14;fontColor=#FFFFFF;" parent="1" vertex="1">
          <mxGeometry x="876" y="778" width="280" height="90" as="geometry" />
        </mxCell>
        <mxCell id="60da8b9f42644d3a-27" value="" style="line;strokeWidth=2;html=1;rounded=0;shadow=0;fontSize=27;align=center;fillColor=none;strokeColor=#FFFFFF;" parent="1" vertex="1">
          <mxGeometry x="896" y="538" width="240" height="10" as="geometry" />
        </mxCell>
        <mxCell id="60da8b9f42644d3a-28" value="" style="line;strokeWidth=2;html=1;rounded=0;shadow=0;fontSize=27;align=center;fillColor=none;strokeColor=#FFFFFF;" parent="1" vertex="1">
          <mxGeometry x="896" y="758" width="240" height="10" as="geometry" />
        </mxCell>
        <mxCell id="60da8b9f42644d3a-32" value="DELIGHT" style="text;html=1;strokeColor=none;fillColor=none;align=center;verticalAlign=middle;whiteSpace=wrap;rounded=0;shadow=0;fontSize=27;fontColor=#FFFFFF;fontStyle=1" parent="1" vertex="1">
          <mxGeometry x="1156" y="478" width="280" height="60" as="geometry" />
        </mxCell>
        <mxCell id="60da8b9f42644d3a-33" value="Events&lt;div&gt;Social Inbox&lt;/div&gt;&lt;div&gt;Smart Content&lt;/div&gt;" style="text;html=1;strokeColor=none;fillColor=none;align=center;verticalAlign=middle;whiteSpace=wrap;rounded=0;shadow=0;fontSize=14;fontColor=#FFFFFF;" parent="1" vertex="1">
          <mxGeometry x="1156" y="778" width="280" height="90" as="geometry" />
        </mxCell>
        <mxCell id="60da8b9f42644d3a-34" value="" style="line;strokeWidth=2;html=1;rounded=0;shadow=0;fontSize=27;align=center;fillColor=none;strokeColor=#FFFFFF;" parent="1" vertex="1">
          <mxGeometry x="1176" y="538" width="240" height="10" as="geometry" />
        </mxCell>
        <mxCell id="60da8b9f42644d3a-35" value="" style="line;strokeWidth=2;html=1;rounded=0;shadow=0;fontSize=27;align=center;fillColor=none;strokeColor=#FFFFFF;" parent="1" vertex="1">
          <mxGeometry x="1176" y="758" width="240" height="10" as="geometry" />
        </mxCell>
        <mxCell id="uRvnblCGNUhLPaCOqFSb-1" value="&lt;font style=&quot;font-size: 48px&quot;&gt;SDK&lt;/font&gt;" style="rounded=1;whiteSpace=wrap;html=1;fillColor=#f5f5f5;strokeColor=#666666;fontColor=#333333;" vertex="1" parent="1">
          <mxGeometry x="186" y="210" width="430" height="680" as="geometry" />
        </mxCell>
        <mxCell id="uRvnblCGNUhLPaCOqFSb-2" value="&lt;font style=&quot;font-size: 36px&quot;&gt;ORDER&lt;/font&gt;" style="rounded=1;whiteSpace=wrap;html=1;fillColor=#dae8fc;strokeColor=#6c8ebf;" vertex="1" parent="1">
          <mxGeometry x="1000" y="166" width="620" height="190" as="geometry" />
        </mxCell>
        <mxCell id="uRvnblCGNUhLPaCOqFSb-4" value="&lt;span style=&quot;font-size: 36px&quot;&gt;PEER&lt;/span&gt;" style="rounded=1;whiteSpace=wrap;html=1;fillColor=#dae8fc;strokeColor=#6c8ebf;" vertex="1" parent="1">
          <mxGeometry x="1000" y="470" width="620" height="273" as="geometry" />
        </mxCell>
        <mxCell id="uRvnblCGNUhLPaCOqFSb-5" value="&lt;span style=&quot;font-size: 36px&quot;&gt;ChainCode&lt;/span&gt;" style="rounded=1;whiteSpace=wrap;html=1;fillColor=#fff2cc;strokeColor=#d6b656;" vertex="1" parent="1">
          <mxGeometry x="1000" y="863" width="620" height="190" as="geometry" />
        </mxCell>
        <mxCell id="uRvnblCGNUhLPaCOqFSb-6" value="&lt;font style=&quot;font-size: 36px&quot;&gt;couchdb&lt;/font&gt;" style="shape=cylinder;whiteSpace=wrap;html=1;boundedLbl=1;backgroundOutline=1;fillColor=#d5e8d4;strokeColor=#82b366;" vertex="1" parent="1">
          <mxGeometry x="1806" y="483" width="310" height="220" as="geometry" />
        </mxCell>
        <mxCell id="uRvnblCGNUhLPaCOqFSb-7" value="" style="endArrow=classic;html=1;" edge="1" parent="1">
          <mxGeometry relative="1" as="geometry">
            <mxPoint x="620" y="548" as="sourcePoint" />
            <mxPoint x="1000" y="548" as="targetPoint" />
            <Array as="points" />
          </mxGeometry>
        </mxCell>
        <mxCell id="uRvnblCGNUhLPaCOqFSb-8" value="1.1 背书&amp;nbsp;" style="edgeLabel;resizable=0;html=1;align=center;verticalAlign=middle;fontStyle=0;fontSize=21;" connectable="0" vertex="1" parent="uRvnblCGNUhLPaCOqFSb-7">
          <mxGeometry relative="1" as="geometry" />
        </mxCell>
        <mxCell id="uRvnblCGNUhLPaCOqFSb-11" value="" style="endArrow=classic;html=1;fontSize=36;entryX=1.004;entryY=0.557;entryDx=0;entryDy=0;entryPerimeter=0;" edge="1" parent="1" target="uRvnblCGNUhLPaCOqFSb-1">
          <mxGeometry relative="1" as="geometry">
            <mxPoint x="1000" y="589" as="sourcePoint" />
            <mxPoint x="610" y="600" as="targetPoint" />
            <Array as="points" />
          </mxGeometry>
        </mxCell>
        <mxCell id="uRvnblCGNUhLPaCOqFSb-14" value="1.4 背书响应" style="edgeLabel;html=1;align=center;verticalAlign=middle;resizable=0;points=[];fontSize=21;" vertex="1" connectable="0" parent="1">
          <mxGeometry x="759.9960213789401" y="660.0049229771789" as="geometry">
            <mxPoint x="24" y="-74" as="offset" />
          </mxGeometry>
        </mxCell>
        <mxCell id="uRvnblCGNUhLPaCOqFSb-15" value="1.2 模拟执行 读写集" style="endArrow=classic;html=1;fontSize=21;entryX=0.391;entryY=-0.004;entryDx=0;entryDy=0;entryPerimeter=0;" edge="1" parent="1" target="uRvnblCGNUhLPaCOqFSb-5">
          <mxGeometry x="-0.0004" relative="1" as="geometry">
            <mxPoint x="1242" y="740" as="sourcePoint" />
            <mxPoint x="1300" y="713" as="targetPoint" />
            <Array as="points" />
            <mxPoint as="offset" />
          </mxGeometry>
        </mxCell>
        <mxCell id="uRvnblCGNUhLPaCOqFSb-17" value="背书&lt;br&gt;签名" style="ellipse;whiteSpace=wrap;html=1;fontSize=21;" vertex="1" parent="1">
          <mxGeometry x="1010" y="610" width="270" height="93" as="geometry" />
        </mxCell>
        <mxCell id="uRvnblCGNUhLPaCOqFSb-18" value="记账&lt;br&gt;交易验证" style="ellipse;whiteSpace=wrap;html=1;fontSize=21;" vertex="1" parent="1">
          <mxGeometry x="1360" y="500" width="240" height="110" as="geometry" />
        </mxCell>
        <mxCell id="uRvnblCGNUhLPaCOqFSb-19" value="1.3 返回响应" style="endArrow=classic;html=1;fontSize=21;exitX=0.123;exitY=0.011;exitDx=0;exitDy=0;exitPerimeter=0;" edge="1" parent="1" source="uRvnblCGNUhLPaCOqFSb-5">
          <mxGeometry relative="1" as="geometry">
            <mxPoint x="1020" y="853" as="sourcePoint" />
            <mxPoint x="1075" y="740" as="targetPoint" />
          </mxGeometry>
        </mxCell>
        <mxCell id="uRvnblCGNUhLPaCOqFSb-21" value="2.1 执行交易" style="endArrow=classic;html=1;fontSize=21;entryX=0;entryY=0.607;entryDx=0;entryDy=0;entryPerimeter=0;" edge="1" parent="1" target="uRvnblCGNUhLPaCOqFSb-2">
          <mxGeometry relative="1" as="geometry">
            <mxPoint x="620" y="280" as="sourcePoint" />
            <mxPoint x="720" y="280" as="targetPoint" />
            <Array as="points" />
          </mxGeometry>
        </mxCell>
        <mxCell id="uRvnblCGNUhLPaCOqFSb-23" value="2.4 返回响应" style="endArrow=classic;html=1;fontSize=21;" edge="1" parent="1">
          <mxGeometry relative="1" as="geometry">
            <mxPoint x="1000" y="319" as="sourcePoint" />
            <mxPoint x="620" y="319" as="targetPoint" />
          </mxGeometry>
        </mxCell>
        <mxCell id="uRvnblCGNUhLPaCOqFSb-25" value="排序切块" style="ellipse;whiteSpace=wrap;html=1;fontSize=21;" vertex="1" parent="1">
          <mxGeometry x="1010" y="220" width="220" height="100" as="geometry" />
        </mxCell>
        <mxCell id="uRvnblCGNUhLPaCOqFSb-30" value="2.2 交易验证" style="endArrow=classic;html=1;fontSize=21;entryX=0.725;entryY=-0.002;entryDx=0;entryDy=0;entryPerimeter=0;" edge="1" parent="1" target="uRvnblCGNUhLPaCOqFSb-4">
          <mxGeometry width="50" height="50" relative="1" as="geometry">
            <mxPoint x="1450" y="360" as="sourcePoint" />
            <mxPoint x="1540" y="400" as="targetPoint" />
          </mxGeometry>
        </mxCell>
        <mxCell id="uRvnblCGNUhLPaCOqFSb-31" value="" style="rounded=0;whiteSpace=wrap;html=1;fontSize=21;" vertex="1" parent="1">
          <mxGeometry x="1540" y="290" width="70" height="30" as="geometry" />
        </mxCell>
        <mxCell id="uRvnblCGNUhLPaCOqFSb-32" value="" style="rounded=0;whiteSpace=wrap;html=1;fontSize=21;" vertex="1" parent="1">
          <mxGeometry x="1470" y="290" width="70" height="30" as="geometry" />
        </mxCell>
        <mxCell id="uRvnblCGNUhLPaCOqFSb-33" value="" style="rounded=0;whiteSpace=wrap;html=1;fontSize=21;" vertex="1" parent="1">
          <mxGeometry x="1400" y="290" width="70" height="30" as="geometry" />
        </mxCell>
        <mxCell id="uRvnblCGNUhLPaCOqFSb-34" value="block" style="rounded=0;whiteSpace=wrap;html=1;fontSize=21;" vertex="1" parent="1">
          <mxGeometry x="1330" y="290" width="70" height="30" as="geometry" />
        </mxCell>
        <mxCell id="uRvnblCGNUhLPaCOqFSb-35" value="2.3 记账" style="endArrow=classic;html=1;fontSize=21;exitX=1.004;exitY=0.432;exitDx=0;exitDy=0;exitPerimeter=0;" edge="1" parent="1" source="uRvnblCGNUhLPaCOqFSb-4">
          <mxGeometry width="50" height="50" relative="1" as="geometry">
            <mxPoint x="1620" y="610" as="sourcePoint" />
            <mxPoint x="1806" y="588" as="targetPoint" />
          </mxGeometry>
        </mxCell>
        <mxCell id="uRvnblCGNUhLPaCOqFSb-37" value="2.3 返回响应" style="endArrow=classic;html=1;fontSize=21;" edge="1" parent="1">
          <mxGeometry width="50" height="50" relative="1" as="geometry">
            <mxPoint x="1300" y="468" as="sourcePoint" />
            <mxPoint x="1300" y="360" as="targetPoint" />
          </mxGeometry>
        </mxCell>
        <mxCell id="uRvnblCGNUhLPaCOqFSb-38" value="deliver" style="endArrow=none;dashed=1;html=1;dashPattern=1 3;strokeWidth=2;fontSize=21;" edge="1" parent="1">
          <mxGeometry width="50" height="50" relative="1" as="geometry">
            <mxPoint x="1110" y="470" as="sourcePoint" />
            <mxPoint x="1110" y="360" as="targetPoint" />
            <Array as="points">
              <mxPoint x="1110" y="420" />
            </Array>
          </mxGeometry>
        </mxCell>
        <mxCell id="uRvnblCGNUhLPaCOqFSb-39" value="访问couchdb" style="endArrow=none;dashed=1;html=1;dashPattern=1 3;strokeWidth=2;fontSize=21;exitX=0.75;exitY=0;exitDx=0;exitDy=0;entryX=0.75;entryY=1;entryDx=0;entryDy=0;" edge="1" parent="1" source="uRvnblCGNUhLPaCOqFSb-5" target="uRvnblCGNUhLPaCOqFSb-4">
          <mxGeometry width="50" height="50" relative="1" as="geometry">
            <mxPoint x="1400" y="800" as="sourcePoint" />
            <mxPoint x="1450" y="750" as="targetPoint" />
          </mxGeometry>
        </mxCell>
        <mxCell id="uRvnblCGNUhLPaCOqFSb-40" value="访问couchdb" style="endArrow=none;dashed=1;html=1;dashPattern=1 3;strokeWidth=2;fontSize=21;entryX=0;entryY=0.7;entryDx=0;entryDy=0;exitX=1.003;exitY=0.633;exitDx=0;exitDy=0;exitPerimeter=0;" edge="1" parent="1" source="uRvnblCGNUhLPaCOqFSb-4" target="uRvnblCGNUhLPaCOqFSb-6">
          <mxGeometry width="50" height="50" relative="1" as="geometry">
            <mxPoint x="1620" y="680" as="sourcePoint" />
            <mxPoint x="1670" y="630" as="targetPoint" />
          </mxGeometry>
        </mxCell>
      </root>
    </mxGraphModel>
  </diagram>
</mxfile>
